<svg width="40" height="40" viewBox="0 0 40 40" fill="none" xmlns="http://www.w3.org/2000/svg">
<path d="M20 26.25C22.7614 26.25 25 24.0114 25 21.25C25 18.4886 22.7614 16.25 20 16.25C17.2386 16.25 15 18.4886 15 21.25C15 24.0114 17.2386 26.25 20 26.25Z" fill="#323238"/>
<path d="M33.75 11.25H29.1406C28.9062 11.25 28.6156 11.0984 28.3891 10.8594L26.3625 7.66094C26.3305 7.61018 26.2947 7.56187 26.2555 7.51641C25.5555 6.7 24.6094 6.25 23.5938 6.25H16.4062C15.3906 6.25 14.4445 6.7 13.7445 7.51641C13.7053 7.56187 13.6695 7.61018 13.6375 7.66094L11.6109 10.8641C11.4375 11.0531 11.1938 11.2547 10.9375 11.2547V10.6297C10.9375 10.2982 10.8058 9.98022 10.5714 9.7458C10.337 9.51138 10.019 9.37969 9.6875 9.37969H7.8125C7.48098 9.37969 7.16304 9.51138 6.92862 9.7458C6.6942 9.98022 6.5625 10.2982 6.5625 10.6297V11.2547H6.25C5.25576 11.2557 4.30253 11.6511 3.59949 12.3542C2.89645 13.0572 2.50103 14.0104 2.5 15.0047V30C2.50103 30.9942 2.89645 31.9475 3.59949 32.6505C4.30253 33.3535 5.25576 33.749 6.25 33.75H33.75C34.7442 33.749 35.6975 33.3535 36.4005 32.6505C37.1035 31.9475 37.499 30.9942 37.5 30V15C37.499 14.0058 37.1035 13.0525 36.4005 12.3495C35.6975 11.6465 34.7442 11.251 33.75 11.25ZM20 28.75C18.5166 28.75 17.0666 28.3101 15.8332 27.486C14.5999 26.6619 13.6386 25.4906 13.0709 24.1201C12.5032 22.7497 12.3547 21.2417 12.6441 19.7868C12.9335 18.332 13.6478 16.9956 14.6967 15.9467C15.7456 14.8978 17.082 14.1835 18.5368 13.8941C19.9917 13.6047 21.4997 13.7532 22.8701 14.3209C24.2406 14.8886 25.4119 15.8499 26.236 17.0832C27.0601 18.3166 27.5 19.7666 27.5 21.25C27.4977 23.2384 26.7068 25.1448 25.3008 26.5508C23.8948 27.9568 21.9884 28.7477 20 28.75Z" fill="#323238"/>
</svg>
